<mxfile host="app.diagrams.net" modified="2023-07-01T01:28:17.014Z" agent="Mozilla/5.0 (Windows NT 10.0; Win64; x64) AppleWebKit/537.36 (KHTML, like Gecko) Chrome/114.0.0.0 Safari/537.36" etag="Zlbww7VFNOIZwOWnT4rg" version="21.5.2" type="github">
  <diagram name="Page-1" id="Ze5qC_2Kn2Of91Acrq0S">
    <mxGraphModel dx="553" dy="1405" grid="1" gridSize="10" guides="1" tooltips="1" connect="0" arrows="0" fold="1" page="1" pageScale="1" pageWidth="850" pageHeight="1100" math="0" shadow="0">
      <root>
        <mxCell id="0" />
        <mxCell id="1" parent="0" />
        <mxCell id="VRHb0y-NRb0ZRUoQYFPS-1" value="react" style="rounded=0;whiteSpace=wrap;html=1;" vertex="1" parent="1">
          <mxGeometry x="160" y="120" width="280" height="160" as="geometry" />
        </mxCell>
        <mxCell id="VRHb0y-NRb0ZRUoQYFPS-2" value="&lt;div style=&quot;&quot;&gt;&lt;br&gt;&lt;/div&gt;" style="rounded=1;whiteSpace=wrap;html=1;align=left;fillColor=none;strokeWidth=3;strokeColor=#868383;movable=0;editable=1;resizable=1;rotatable=1;deletable=1;locked=0;connectable=0;pointerEvents=0;allowArrows=0;" vertex="1" parent="1">
          <mxGeometry x="80" y="400" width="440" height="480" as="geometry" />
        </mxCell>
        <mxCell id="VRHb0y-NRb0ZRUoQYFPS-3" value="User Page" style="rounded=0;whiteSpace=wrap;html=1;" vertex="1" parent="1">
          <mxGeometry x="360" y="-160" width="120" height="80" as="geometry" />
        </mxCell>
        <mxCell id="VRHb0y-NRb0ZRUoQYFPS-4" value="new playlist" style="rounded=0;whiteSpace=wrap;html=1;" vertex="1" parent="1">
          <mxGeometry x="640" y="-160" width="120" height="80" as="geometry" />
        </mxCell>
        <mxCell id="VRHb0y-NRb0ZRUoQYFPS-5" value="MySQL" style="rounded=0;whiteSpace=wrap;html=1;" vertex="1" parent="1">
          <mxGeometry x="680" y="510" width="230" height="170" as="geometry" />
        </mxCell>
        <mxCell id="VRHb0y-NRb0ZRUoQYFPS-6" value="login" style="rounded=0;whiteSpace=wrap;html=1;" vertex="1" parent="1">
          <mxGeometry x="80" y="-160" width="120" height="80" as="geometry" />
        </mxCell>
        <mxCell id="VRHb0y-NRb0ZRUoQYFPS-19" value="Spring" style="text;html=1;strokeColor=none;fillColor=none;align=center;verticalAlign=middle;whiteSpace=wrap;rounded=0;" vertex="1" parent="1">
          <mxGeometry x="100" y="420" width="60" height="30" as="geometry" />
        </mxCell>
        <mxCell id="VRHb0y-NRb0ZRUoQYFPS-20" value="check login" style="rounded=0;whiteSpace=wrap;html=1;" vertex="1" parent="1">
          <mxGeometry x="360" y="520" width="120" height="40" as="geometry" />
        </mxCell>
        <mxCell id="VRHb0y-NRb0ZRUoQYFPS-32" value="confirm data" style="rounded=0;whiteSpace=wrap;html=1;" vertex="1" parent="1">
          <mxGeometry x="400" y="440" width="80" height="40" as="geometry" />
        </mxCell>
        <mxCell id="VRHb0y-NRb0ZRUoQYFPS-42" value="" style="endArrow=classic;html=1;rounded=0;snapToPoint=0;entryX=0.071;entryY=-0.027;entryDx=0;entryDy=0;entryPerimeter=0;" edge="1" parent="1" target="VRHb0y-NRb0ZRUoQYFPS-1">
          <mxGeometry width="50" height="50" relative="1" as="geometry">
            <mxPoint x="88.4516365297379" y="-80" as="sourcePoint" />
            <mxPoint x="168" y="90" as="targetPoint" />
            <Array as="points">
              <mxPoint x="90" y="10" />
              <mxPoint x="180" y="10" />
            </Array>
          </mxGeometry>
        </mxCell>
        <mxCell id="VRHb0y-NRb0ZRUoQYFPS-44" value="login data" style="edgeLabel;html=1;align=center;verticalAlign=middle;resizable=0;points=[];" vertex="1" connectable="0" parent="VRHb0y-NRb0ZRUoQYFPS-42">
          <mxGeometry x="-0.3043" y="-1" relative="1" as="geometry">
            <mxPoint x="31" y="-1" as="offset" />
          </mxGeometry>
        </mxCell>
        <mxCell id="VRHb0y-NRb0ZRUoQYFPS-45" value="" style="endArrow=classic;html=1;rounded=0;" edge="1" parent="1">
          <mxGeometry width="50" height="50" relative="1" as="geometry">
            <mxPoint x="180" y="290" as="sourcePoint" />
            <mxPoint x="360" y="540" as="targetPoint" />
            <Array as="points">
              <mxPoint x="180" y="540" />
            </Array>
          </mxGeometry>
        </mxCell>
        <mxCell id="VRHb0y-NRb0ZRUoQYFPS-46" value="login data" style="edgeLabel;html=1;align=center;verticalAlign=middle;resizable=0;points=[];" vertex="1" connectable="0" parent="VRHb0y-NRb0ZRUoQYFPS-45">
          <mxGeometry x="-0.7793" y="1" relative="1" as="geometry">
            <mxPoint as="offset" />
          </mxGeometry>
        </mxCell>
        <mxCell id="VRHb0y-NRb0ZRUoQYFPS-47" value="" style="endArrow=classic;html=1;rounded=0;exitX=1.008;exitY=0.269;exitDx=0;exitDy=0;exitPerimeter=0;entryX=-0.019;entryY=0.117;entryDx=0;entryDy=0;entryPerimeter=0;strokeColor=default;startArrow=classic;startFill=1;" edge="1" parent="1" source="VRHb0y-NRb0ZRUoQYFPS-20" target="VRHb0y-NRb0ZRUoQYFPS-5">
          <mxGeometry width="50" height="50" relative="1" as="geometry">
            <mxPoint x="390" y="490" as="sourcePoint" />
            <mxPoint x="440" y="440" as="targetPoint" />
          </mxGeometry>
        </mxCell>
        <mxCell id="VRHb0y-NRb0ZRUoQYFPS-48" value="request/receive&lt;br&gt;login data" style="edgeLabel;html=1;align=center;verticalAlign=middle;resizable=0;points=[];" vertex="1" connectable="0" parent="VRHb0y-NRb0ZRUoQYFPS-47">
          <mxGeometry x="-0.3352" relative="1" as="geometry">
            <mxPoint x="35" as="offset" />
          </mxGeometry>
        </mxCell>
        <mxCell id="VRHb0y-NRb0ZRUoQYFPS-49" value="" style="endArrow=classic;html=1;rounded=0;entryX=0.525;entryY=1.027;entryDx=0;entryDy=0;entryPerimeter=0;" edge="1" parent="1" target="VRHb0y-NRb0ZRUoQYFPS-32">
          <mxGeometry width="50" height="50" relative="1" as="geometry">
            <mxPoint x="442" y="520" as="sourcePoint" />
            <mxPoint x="450" y="460" as="targetPoint" />
          </mxGeometry>
        </mxCell>
        <mxCell id="VRHb0y-NRb0ZRUoQYFPS-51" value="" style="endArrow=classic;html=1;rounded=0;fillColor=#a20025;strokeColor=#6F0000;exitX=0.021;exitY=0.847;exitDx=0;exitDy=0;exitPerimeter=0;" edge="1" parent="1" source="VRHb0y-NRb0ZRUoQYFPS-32">
          <mxGeometry width="50" height="50" relative="1" as="geometry">
            <mxPoint x="400" y="460" as="sourcePoint" />
            <mxPoint x="220" y="290" as="targetPoint" />
            <Array as="points">
              <mxPoint x="310" y="474" />
              <mxPoint x="220" y="474" />
            </Array>
          </mxGeometry>
        </mxCell>
        <mxCell id="VRHb0y-NRb0ZRUoQYFPS-52" value="correct" style="edgeLabel;html=1;align=center;verticalAlign=middle;resizable=0;points=[];" vertex="1" connectable="0" parent="VRHb0y-NRb0ZRUoQYFPS-51">
          <mxGeometry x="-0.518" relative="1" as="geometry">
            <mxPoint as="offset" />
          </mxGeometry>
        </mxCell>
        <mxCell id="VRHb0y-NRb0ZRUoQYFPS-57" value="" style="endArrow=classic;html=1;exitX=0.209;exitY=-0.001;exitDx=0;exitDy=0;exitPerimeter=0;fillColor=#a20025;strokeColor=#6F0000;rounded=1;entryX=0.748;entryY=1.029;entryDx=0;entryDy=0;entryPerimeter=0;" edge="1" parent="1" target="VRHb0y-NRb0ZRUoQYFPS-6">
          <mxGeometry width="50" height="50" relative="1" as="geometry">
            <mxPoint x="219" y="120" as="sourcePoint" />
            <mxPoint x="170" y="-70" as="targetPoint" />
            <Array as="points">
              <mxPoint x="219" />
              <mxPoint x="170" y="-30" />
            </Array>
          </mxGeometry>
        </mxCell>
        <mxCell id="VRHb0y-NRb0ZRUoQYFPS-58" value="" style="endArrow=classic;html=1;exitX=0.209;exitY=-0.001;exitDx=0;exitDy=0;exitPerimeter=0;fillColor=#60a917;strokeColor=#2D7600;rounded=1;dashed=1;entryX=0.748;entryY=1.029;entryDx=0;entryDy=0;entryPerimeter=0;dashPattern=12 12;" edge="1" parent="1">
          <mxGeometry width="50" height="50" relative="1" as="geometry">
            <mxPoint x="219" y="120" as="sourcePoint" />
            <mxPoint x="170" y="-78" as="targetPoint" />
            <Array as="points">
              <mxPoint x="219" />
              <mxPoint x="170" y="-30" />
            </Array>
          </mxGeometry>
        </mxCell>
        <mxCell id="VRHb0y-NRb0ZRUoQYFPS-59" value="" style="endArrow=classic;html=1;rounded=0;fillColor=#008a00;strokeColor=#005700;exitX=0.021;exitY=0.847;exitDx=0;exitDy=0;exitPerimeter=0;dashed=1;dashPattern=12 12;" edge="1" parent="1">
          <mxGeometry width="50" height="50" relative="1" as="geometry">
            <mxPoint x="402" y="474" as="sourcePoint" />
            <mxPoint x="220" y="290" as="targetPoint" />
            <Array as="points">
              <mxPoint x="310" y="474" />
              <mxPoint x="220" y="474" />
            </Array>
          </mxGeometry>
        </mxCell>
        <mxCell id="VRHb0y-NRb0ZRUoQYFPS-60" value="correct/incorrect" style="edgeLabel;html=1;align=center;verticalAlign=middle;resizable=0;points=[];" vertex="1" connectable="0" parent="VRHb0y-NRb0ZRUoQYFPS-59">
          <mxGeometry x="-0.518" relative="1" as="geometry">
            <mxPoint as="offset" />
          </mxGeometry>
        </mxCell>
      </root>
    </mxGraphModel>
  </diagram>
</mxfile>
